<?xml version="1.0" encoding="UTF-8" standalone="no"?>
<svg
   xmlns:dc="http://purl.org/dc/elements/1.1/"
   xmlns:cc="http://creativecommons.org/ns#"
   xmlns:rdf="http://www.w3.org/1999/02/22-rdf-syntax-ns#"
   xmlns:svg="http://www.w3.org/2000/svg"
   xmlns="http://www.w3.org/2000/svg"
   xmlns:sodipodi="http://sodipodi.sourceforge.net/DTD/sodipodi-0.dtd"
   xmlns:inkscape="http://www.inkscape.org/namespaces/inkscape"
   id="menu"
   width="19.651"
   height="17"
   viewBox="0 0 19.651 17"
   version="1.1"
   sodipodi:docname="menu-white - open.svg"
   inkscape:version="1.0.2-2 (e86c870879, 2021-01-15)">
  <metadata
     id="metadata20">
    <rdf:RDF>
      <cc:Work
         rdf:about="">
        <dc:format>image/svg+xml</dc:format>
        <dc:type
           rdf:resource="http://purl.org/dc/dcmitype/StillImage" />
        <dc:title></dc:title>
      </cc:Work>
    </rdf:RDF>
  </metadata>
  <sodipodi:namedview
     pagecolor="#ffffff"
     bordercolor="#666666"
     borderopacity="1"
     objecttolerance="10"
     gridtolerance="10"
     guidetolerance="10"
     inkscape:pageopacity="0"
     inkscape:pageshadow="2"
     inkscape:window-width="1606"
     inkscape:window-height="1251"
     id="namedview18"
     showgrid="false"
     inkscape:zoom="43.235294"
     inkscape:cx="9.8254995"
     inkscape:cy="8.3959184"
     inkscape:window-x="520"
     inkscape:window-y="120"
     inkscape:window-maximized="0"
     inkscape:current-layer="menu"
     inkscape:document-rotation="0"
     inkscape:pagecheckerboard="true" />
  <defs
     id="defs5">
    <clipPath
       id="clip-path">
      <rect
         width="19.651"
         height="17"
         fill="none"
         id="rect2" />
    </clipPath>
  </defs>
  <path
     style="fill:#ffffff;stroke-width:0.0231293"
     d="M 2.8396981,2.3805471 C 2.6605179,2.1297819 2.5601142,1.7986675 2.565828,1.4773704 2.5727532,1.0879665 2.7006224,0.77949159 2.9749745,0.49033546 3.1780065,0.27634777 3.3196437,0.18874574 3.6181618,0.0925268 c 0.3905758,-0.12589123 0.8518293,-0.06584867 1.2148964,0.158146 0.1559589,0.0962197 0.224562,0.16655815 6.0632228,6.2166459 5.824954,6.0358843 5.90672,6.1215073 5.996499,6.2793243 0.212682,0.373857 0.256067,0.83281 0.115401,1.220777 -0.09558,0.26361 -0.189777,0.413581 -0.366571,0.583607 -0.494579,0.475627 -1.18495,0.554192 -1.820634,0.207163 C 14.717763,14.701845 14.24264,14.214253 8.811883,8.5913764 5.5685246,5.2332782 2.8810383,2.4384079 2.8396981,2.3805471 Z"
     id="path853" />
  <path
     style="fill:#ffffff;stroke-width:0.0231293"
     d="M 4.9536938,14.663099 C 4.7093529,14.850945 4.3819548,14.962875 4.0606547,14.968408 3.6712468,14.975114 3.3584861,14.858118 3.0599063,14.594053 2.8389447,14.398634 2.7464397,14.260149 2.6398332,13.965181 2.5003511,13.579249 2.5442156,13.116177 2.7553677,12.745494 2.8460707,12.586263 2.9139654,12.515241 8.7560264,6.4684365 14.584373,0.43582754 14.667081,0.35111558 14.82166,0.2558682 c 0.366185,-0.22563478 0.823339,-0.28505366 1.215991,-0.15805043 0.266794,0.08629485 0.419969,0.17518739 0.596078,0.34592359 0.492643,0.47763097 0.595319,1.16483004 0.270748,1.81226934 -0.0527,0.1051208 -0.523365,0.5970164 -5.952751,6.2212166 -3.2425277,3.3589007 -5.9416461,6.1425387 -5.99803,6.1858737 z"
     id="path853-2" />
</svg>
